<?xml version="1.0" encoding="utf-8"?>
<!-- Generator: Adobe Illustrator 26.0.1, SVG Export Plug-In . SVG Version: 6.00 Build 0)  -->
<svg version="1.1" id="Layer_1" xmlns="http://www.w3.org/2000/svg" xmlns:xlink="http://www.w3.org/1999/xlink" x="0px" y="0px"
	 viewBox="0 0 126 87" style="enable-background:new 0 0 126 87;" xml:space="preserve">
<style type="text/css">
	.st0{fill:#EDEDED;}
	.st1{fill:#EF4423;}
</style>
<g>
	<g>
		<path class="st0" d="M11.4,82.3l-1,3H8.2l4-11.6H15l4.2,11.6h-2.3l-1.1-3L11.4,82.3L11.4,82.3z M15.3,80.5
			c-0.9-2.7-1.5-4.2-1.8-5.2h0c-0.3,1.1-0.9,3-1.6,5.2H15.3z"/>
		<path class="st0" d="M29.5,82.8c0,0.8,0,1.8,0,2.5h-2c0-0.2,0-0.7-0.1-1.1c-0.5,0.9-1.3,1.3-2.5,1.3c-1.7,0-2.9-1-2.9-3.2v-5.7
			h2.1v5.2c0,1,0.3,1.9,1.5,1.9c1.3,0,1.8-0.7,1.8-2.6v-4.6h2.1L29.5,82.8L29.5,82.8z"/>
		<path class="st0" d="M33.5,78.9c0-0.8,0-1.5,0-2.2h2c0,0.2,0.1,0.8,0.1,1.1c0.4-0.7,1.1-1.3,2.4-1.3c1.2,0,2,0.6,2.3,1.4
			c0.5-0.8,1.3-1.4,2.7-1.4c1.5,0,2.7,0.9,2.7,3.2v5.7h-2v-5.4c0-0.9-0.3-1.7-1.4-1.7c-1.2,0-1.6,0.8-1.6,2.2v4.9h-2v-5.4
			c0-1-0.2-1.8-1.4-1.8c-1.1,0-1.6,0.8-1.6,2.3v4.8h-2.1C33.5,85.3,33.5,78.9,33.5,78.9z"/>
		<path class="st0" d="M56,73.7h4.9c2.7,0,3.8,1.4,3.8,2.9c0,1.3-0.7,2.2-1.5,2.5c0.8,0.3,1.9,1.1,1.9,2.7c0,2.1-1.6,3.5-4,3.5h-5
			V73.7z M60.6,78.3c1.4,0,1.9-0.6,1.9-1.5c0-0.9-0.7-1.4-1.8-1.4h-2.6v3H60.6z M58.1,83.6h2.5c1.4,0,2.2-0.6,2.2-1.8
			c0-1.1-0.7-1.7-2.3-1.7h-2.4C58.1,80,58.1,83.6,58.1,83.6z"/>
		<path class="st0" d="M70.2,81.4c0,1.3,0.7,2.4,1.9,2.4c1.1,0,1.5-0.5,1.7-1.1H76c-0.3,1.1-1.3,2.7-3.9,2.7c-2.8,0-4-2.2-4-4.4
			c0-2.7,1.4-4.6,4.1-4.6c2.9,0,3.9,2.2,3.9,4.2c0,0.3,0,0.5,0,0.7L70.2,81.4L70.2,81.4z M74,80.1c0-1.1-0.5-2.1-1.8-2.1
			c-1.3,0-1.8,0.9-1.9,2.1H74z"/>
		<path class="st0" d="M81.3,81.4c0,1.3,0.7,2.4,1.9,2.4c1.1,0,1.5-0.5,1.7-1.1H87c-0.3,1.1-1.3,2.7-3.9,2.7c-2.8,0-4-2.2-4-4.4
			c0-2.7,1.4-4.6,4.1-4.6c2.9,0,3.9,2.2,3.9,4.2c0,0.3,0,0.5,0,0.7L81.3,81.4L81.3,81.4z M85,80.1c0-1.1-0.5-2.1-1.8-2.1
			c-1.3,0-1.8,0.9-1.9,2.1H85z"/>
		<path class="st0" d="M106.3,81.8c-0.5,2.1-2.1,3.6-4.9,3.6c-3.6,0-5.4-2.6-5.4-5.9c0-3.2,1.8-6,5.5-6c3,0,4.5,1.7,4.8,3.7h-2.2
			c-0.3-1-1-1.9-2.7-1.9c-2.2,0-3.1,2-3.1,4.2c0,2.1,0.8,4.3,3.2,4.3c1.7,0,2.3-1.1,2.6-1.9H106.3z"/>
		<path class="st0" d="M117.7,81c0,2.6-1.5,4.5-4.2,4.5c-2.6,0-4.2-1.9-4.2-4.5c0-2.6,1.6-4.6,4.3-4.6
			C116.1,76.4,117.7,78.2,117.7,81z M111.5,81c0,1.7,0.8,2.9,2.1,2.9c1.3,0,2-1.1,2-2.9c0-1.9-0.7-2.9-2.1-2.9
			C112.3,78.1,111.5,79.1,111.5,81z"/>
	</g>
	<g>
		<g>
			<path class="st1" d="M97.1,46.4c1.6-3.4,5.1-5.6,8.9-5.6c2.3,0,4.5,0.8,6.3,2.3l0.7,0.6l6.4-6.5l-0.8-0.7
				c-1.7-1.6-3.7-2.8-5.9-3.6c-2.2-0.8-4.4-1.2-6.8-1.2c-5.1,0-9.8,2-13.4,5.5c-0.9,0.9-1.7,1.9-2.4,3l-0.4,0.7l6.8,6.8L97.1,46.4z"
				/>
			<path class="st1" d="M114.4,55.7l-0.7,0.9c-1.9,2.4-4.7,3.8-7.8,3.8c-2.8,0-5.5-1.2-7.4-3.3l0,0l-9.7-9.7L87.5,46l0,0l-7.8-7.8
				c0,0-0.1-0.1-0.1-0.1l0,0l-0.7-0.7c-0.2-0.2-0.3-0.3-0.4-0.5c-3.6-3.6-8.3-5.5-13.4-5.5c-3.5,0-6.9,1-9.9,2.8V9.2l-9.1,9.1v20
				l9.5,9.2l0.6-1.3c1.6-3.5,5.1-5.8,8.9-5.8c2.5,0,4.9,1,6.7,2.7l-0.1,0l1.1,1.1c1.3,1.7,2.1,3.8,2.1,6c0,5.4-4.4,9.8-9.8,9.8
				c-2.7,0-5.4-1.2-7.2-3.2l0,0L46.1,45.6v0.1l-6.9-6.8l-2.3-2.2l0,0c-3.5-3.3-8-5-12.9-5c-5.1,0-9.8,2-13.4,5.5
				C7,40.8,5,45.5,5,50.6s2,9.8,5.6,13.4c3.6,3.6,8.3,5.5,13.4,5.5s9.8-2,13.4-5.5c1-1,1.8-2,2.6-3.2l0.4-0.7l-6.9-6.7l-0.6,1.3
				c-1.6,3.5-5.1,5.7-8.9,5.7c-5.4,0-9.8-4.4-9.8-9.8c0-5.4,4.4-9.8,9.8-9.8c2.7,0,5.3,1.1,7.2,3.1l0,0l9.9,9.7l1.4,1.4l0,0l9.8,9.5
				l0.1-0.1c3.5,3.2,8,4.9,12.7,4.9c5.1,0,9.8-2,13.4-5.5c2.5-2.5,4.2-5.5,5-8.8l9.8,9.8l0,0c3.5,3.2,7.9,4.9,12.7,4.9
				c5.1,0,9.8-2,13.4-5.6c0.3-0.3,0.7-0.7,1-1.1l0.6-0.7L114.4,55.7z"/>
		</g>
		<path class="st1" d="M63.3,7.4v21.8c-2.1,0.3-4.1,0.9-6,1.8V1.5L63.3,7.4z"/>
	</g>
</g>
</svg>
