<?xml version="1.0" encoding="utf-8"?>
<!-- Generator: Adobe Illustrator 25.2.0, SVG Export Plug-In . SVG Version: 6.00 Build 0)  -->
<svg version="1.1" id="Layer_1" xmlns="http://www.w3.org/2000/svg" xmlns:xlink="http://www.w3.org/1999/xlink" x="0px" y="0px"
	 viewBox="0 0 126 87" style="enable-background:new 0 0 126 87;" xml:space="preserve">
<style type="text/css">
	.st0{fill:#4D4E50;}
	.st1{fill:#EF4423;}
</style>
<g>
	<g>
		<path class="st0" d="M11.43,82.33L10.4,85.3H8.25l4.02-11.64H15l4.19,11.64h-2.3l-1.07-2.96H11.43z M15.32,80.52
			c-0.92-2.66-1.48-4.25-1.75-5.24h-0.02c-0.29,1.09-0.9,2.97-1.64,5.24H15.32z"/>
		<path class="st0" d="M29.51,82.78c0,0.84,0.01,1.83,0.02,2.52h-2.05c-0.03-0.23-0.05-0.72-0.06-1.1c-0.48,0.9-1.27,1.3-2.46,1.3
			c-1.66,0-2.88-0.96-2.88-3.2v-5.65h2.09v5.23c0,1.02,0.32,1.89,1.49,1.89c1.26,0,1.77-0.68,1.77-2.55v-4.57h2.09V82.78z"/>
		<path class="st0" d="M33.55,78.88c0-0.75,0-1.5-0.02-2.23h2c0.03,0.23,0.07,0.76,0.08,1.13c0.42-0.69,1.14-1.33,2.44-1.33
			c1.24,0,1.97,0.64,2.29,1.39c0.49-0.75,1.26-1.39,2.7-1.39c1.47,0,2.74,0.89,2.74,3.17v5.68h-2.05v-5.42
			c0-0.86-0.31-1.72-1.41-1.72c-1.15,0-1.62,0.79-1.62,2.19v4.95h-2.05v-5.35c0-0.97-0.25-1.78-1.39-1.78
			c-1.11,0-1.64,0.77-1.64,2.31v4.82h-2.07V78.88z"/>
		<path class="st0" d="M56,73.66h4.87c2.69,0,3.79,1.41,3.79,2.95c0,1.33-0.72,2.19-1.55,2.53c0.79,0.28,1.9,1.11,1.9,2.7
			c0,2.06-1.6,3.46-3.99,3.46H56V73.66z M60.59,78.33c1.36,0,1.91-0.58,1.91-1.51c0-0.91-0.68-1.45-1.78-1.45h-2.57v2.96H60.59z
			 M58.15,83.58h2.48c1.4,0,2.15-0.61,2.15-1.8c0-1.05-0.68-1.73-2.26-1.73h-2.37V83.58z"/>
		<path class="st0" d="M70.22,81.4c0.01,1.31,0.66,2.43,1.95,2.43c1.12,0,1.46-0.5,1.7-1.06h2.1c-0.32,1.08-1.26,2.73-3.86,2.73
			c-2.81,0-4-2.16-4-4.41c0-2.67,1.36-4.64,4.09-4.64c2.91,0,3.89,2.18,3.89,4.23c0,0.28,0,0.48-0.03,0.73H70.22z M73.99,80.07
			c-0.02-1.15-0.52-2.09-1.8-2.09c-1.27,0-1.8,0.88-1.92,2.09H73.99z"/>
		<path class="st0" d="M81.26,81.4c0.01,1.31,0.66,2.43,1.95,2.43c1.12,0,1.46-0.5,1.7-1.06h2.1c-0.32,1.08-1.26,2.73-3.86,2.73
			c-2.81,0-4-2.16-4-4.41c0-2.67,1.36-4.64,4.09-4.64c2.91,0,3.89,2.18,3.89,4.23c0,0.28,0,0.48-0.03,0.73H81.26z M85.03,80.07
			c-0.02-1.15-0.52-2.09-1.8-2.09c-1.27,0-1.8,0.88-1.92,2.09H85.03z"/>
		<path class="st0" d="M106.32,81.81c-0.48,2.1-2.07,3.65-4.89,3.65c-3.62,0-5.37-2.62-5.37-5.93c0-3.18,1.79-6.04,5.47-6.04
			c2.98,0,4.48,1.73,4.78,3.68h-2.18c-0.3-1.02-1-1.94-2.67-1.94c-2.24,0-3.13,2.03-3.13,4.23c0,2.08,0.8,4.26,3.2,4.26
			c1.69,0,2.3-1.08,2.6-1.91H106.32z"/>
		<path class="st0" d="M117.75,80.96c0,2.58-1.52,4.54-4.23,4.54c-2.61,0-4.16-1.92-4.16-4.5c0-2.63,1.57-4.55,4.27-4.55
			C116.13,76.44,117.75,78.24,117.75,80.96z M111.49,80.97c0,1.74,0.79,2.86,2.08,2.86c1.31,0,2.04-1.1,2.04-2.85
			c0-1.86-0.74-2.88-2.08-2.88C112.26,78.11,111.49,79.09,111.49,80.97z"/>
	</g>
	<g>
		<g>
			<path class="st1" d="M97.11,46.39c1.63-3.4,5.1-5.6,8.86-5.6c2.29,0,4.52,0.81,6.28,2.28l0.69,0.58l6.45-6.45l-0.77-0.7
				c-1.73-1.56-3.71-2.77-5.86-3.59c-2.16-0.83-4.44-1.25-6.79-1.25c-5.06,0-9.82,1.97-13.4,5.55c-0.91,0.91-1.72,1.9-2.42,2.96
				l-0.44,0.67l6.8,6.8L97.11,46.39z"/>
			<path class="st1" d="M114.43,55.72l-0.69,0.89c-1.88,2.43-4.71,3.82-7.77,3.82c-2.82,0-5.5-1.22-7.37-3.34l-0.02-0.02l-9.69-9.69
				l-1.39-1.39l-0.01,0.04l-7.81-7.81c-0.04-0.04-0.07-0.09-0.11-0.13l0.02-0.02l-0.65-0.7c-0.17-0.18-0.32-0.33-0.45-0.47
				c-3.58-3.58-8.34-5.55-13.4-5.55c-3.54,0-6.92,0.95-9.88,2.77V9.22l-9.13,9.13v20l9.49,9.16l0.58-1.27
				c1.59-3.5,5.1-5.76,8.94-5.76c2.51,0,4.92,0.97,6.74,2.69l-0.05,0.05l1.07,1.07c1.35,1.73,2.06,3.81,2.06,6.01
				c0,5.41-4.4,9.82-9.82,9.82c-2.73,0-5.36-1.15-7.21-3.17l-0.02-0.02L46.08,45.56v0.07l-6.93-6.75l-2.29-2.21l0,0
				c-3.51-3.26-8.05-5.04-12.87-5.04c-5.06,0-9.82,1.97-13.4,5.55c-3.58,3.58-5.55,8.34-5.55,13.4s1.97,9.82,5.55,13.4
				c3.58,3.58,8.34,5.55,13.4,5.55s9.82-1.97,13.4-5.55c0.97-0.97,1.83-2.04,2.56-3.18l0.44-0.68L33.5,53.4l-0.58,1.27
				c-1.6,3.48-5.1,5.72-8.92,5.72c-5.41,0-9.82-4.4-9.82-9.82c0-5.41,4.4-9.82,9.82-9.82c2.71,0,5.33,1.14,7.18,3.13l0.02,0.02
				l9.93,9.67l1.42,1.38l0.01-0.04l9.76,9.51l0.08-0.09c3.49,3.16,7.97,4.89,12.71,4.89c5.06,0,9.82-1.97,13.4-5.55
				c2.46-2.46,4.16-5.47,4.99-8.78l9.79,9.79l0.02-0.02c3.49,3.15,7.95,4.87,12.68,4.87c5.06,0,9.82-1.97,13.4-5.55
				c0.34-0.34,0.67-0.7,0.99-1.06l0.6-0.69L114.43,55.72z"/>
		</g>
		<path class="st1" d="M63.34,7.39V29.2c-2.11,0.27-4.14,0.88-6,1.8V1.5L63.34,7.39z"/>
	</g>
</g>
</svg>
